<svg width="190" height="35" fill="none" xmlns="http://www.w3.org/2000/svg"><path d="M55.28 20.52v.91l.07.82 1.66.24v.84c-.2.1-.46.19-.8.29a12.2 12.2 0 01-2.09.48l-.93.14h-.81a3.53 3.53 0 01-.3-1.1c-.02-.37-.05-.82-.06-1.35h-.12a3.2 3.2 0 01-2.19 2.28 4.32 4.32 0 01-2.8-.02 3.7 3.7 0 01-1.18-.67c-.34-.3-.6-.64-.8-1.04-.19-.41-.28-.88-.28-1.39 0-.72.13-1.31.4-1.77.28-.47.7-.84 1.28-1.13.59-.3 1.34-.53 2.25-.67.93-.15 2.05-.25 3.36-.32a7.34 7.34 0 00-.16-3.02c-.24-.64-.76-.96-1.56-.96-.5 0-.96.08-1.37.24l-1.13 2.88h-1.06c-.12-.2-.25-.4-.38-.65l-.34-.79c-.1-.29-.18-.58-.26-.86a8.4 8.4 0 01-.14-.84c.6-.42 1.39-.75 2.35-.99.96-.24 1.97-.36 3.05-.36.9 0 1.65.1 2.23.31.57.2 1.02.47 1.34.82.34.34.57.74.7 1.2.13.46.19.96.19 1.49 0 .96-.02 1.83-.07 2.61a57.1 57.1 0 00-.05 2.38zm-5.4 1.85c.34 0 .62-.07.86-.2a2.2 2.2 0 00.99-1.03c.1-.2.17-.39.21-.55v-2.4c-.75.02-1.36.07-1.84.15-.48.08-.86.21-1.13.4-.27.18-.47.41-.58.7-.1.27-.14.6-.14 1 0 .62.14 1.09.43 1.42.29.34.69.5 1.2.5zm14.6 6.43h-6.62v-.94a8.67 8.67 0 011.59-.57V13.7l-1.59-.19v-.93c.26-.12.57-.22.94-.32.38-.1.78-.17 1.18-.24.4-.08.78-.14 1.15-.19l.96-.12h.81v2.69h.03c.27-.77.7-1.4 1.27-1.92.6-.51 1.4-.77 2.45-.77.7 0 1.33.12 1.9.36a3.3 3.3 0 011.43 1.08c.4.48.7 1.1.92 1.87.22.76.33 1.66.33 2.72 0 1-.14 1.92-.43 2.73-.27.82-.67 1.5-1.2 2.07-.51.56-1.14.99-1.9 1.3-.73.3-1.57.45-2.52.45-.54 0-.97-.04-1.3-.12-.3-.07-.62-.19-.98-.36v3.48c.26.03.52.09.77.17.26.1.53.23.82.4v.94zm.78-15.17c-.55 0-1.04.2-1.47.58-.41.38-.71.97-.89 1.77v6.39c.26.19.53.33.82.43.29.08.66.12 1.13.12.9 0 1.58-.44 2.01-1.32.44-.88.65-2.17.65-3.86 0-1.32-.17-2.32-.5-3.03-.32-.72-.9-1.08-1.75-1.08zM79.1 28.8H72.5v-.94a8.67 8.67 0 011.58-.57V13.7l-1.58-.19v-.93c.25-.12.57-.22.93-.32.39-.1.78-.17 1.18-.24.4-.08.78-.14 1.15-.19l.96-.12h.82v2.69h.02c.27-.77.7-1.4 1.27-1.92.6-.51 1.41-.77 2.45-.77.7 0 1.34.12 1.9.36a3.3 3.3 0 011.44 1.08c.4.48.7 1.1.91 1.87.22.76.34 1.66.34 2.72 0 1-.15 1.92-.44 2.73-.27.82-.67 1.5-1.2 2.07-.5.56-1.14.99-1.9 1.3-.73.3-1.57.45-2.51.45-.55 0-.98-.04-1.3-.12-.3-.07-.63-.19-.98-.36v3.48c.25.03.51.09.77.17.25.1.52.23.81.4v.94zm.77-15.17c-.54 0-1.03.2-1.46.58-.42.38-.72.97-.9 1.77v6.39c.26.19.54.33.82.43.3.08.67.12 1.13.12.91 0 1.59-.44 2.02-1.32.43-.88.65-2.17.65-3.86 0-1.32-.17-2.32-.5-3.03-.33-.72-.91-1.08-1.76-1.08zm8.24 8.67c0-.58.19-1.04.55-1.4.37-.35.86-.52 1.47-.52.6 0 1.1.17 1.49.52.38.36.57.82.57 1.4 0 .57-.2 1.04-.57 1.39-.39.33-.88.5-1.5.5-.6 0-1.09-.17-1.46-.5a1.84 1.84 0 01-.55-1.4zm16.53-.24c-.1.32-.3.61-.55.88a4.44 4.44 0 01-2.16 1.18 7.8 7.8 0 01-4.15-.26 5.05 5.05 0 01-1.87-1.28 5.38 5.38 0 01-1.1-1.99 8.83 8.83 0 01-.37-2.59c0-2.03.56-3.58 1.66-4.66 1.12-1.08 2.7-1.63 4.75-1.63.79 0 1.5.09 2.16.27.66.16 1.2.35 1.64.57-.04.27-.08.58-.15.91-.05.32-.11.65-.2.99a10.52 10.52 0 01-.52 1.73h-1.18l-1-2.86a1.06 1.06 0 00-.36-.17 1.74 1.74 0 00-.58-.07c-.42 0-.78.08-1.08.24-.3.14-.57.4-.8.77-.2.37-.36.85-.47 1.46-.1.61-.15 1.36-.15 2.26 0 .65.08 1.26.22 1.82a3.44 3.44 0 001.78 2.4c.44.23.97.34 1.58.34a4.07 4.07 0 002.52-.82l.39.5zm7.65-7.3c-.2.1-.42.26-.68.48-.25.22-.48.6-.7 1.1v6.15a5.1 5.1 0 011.93.57V24h-6.96v-.94c.29-.16.56-.28.81-.36l.77-.21V13.7l-1.58-.19v-.93c.25-.12.57-.22.93-.32.39-.1.78-.17 1.18-.24.4-.08.78-.14 1.15-.19l.96-.12h.82v3.2h.1a5.92 5.92 0 011.43-2.17c.34-.32.7-.57 1.1-.76.4-.2.82-.28 1.26-.27.17.23.32.55.45.96.13.4.23.79.31 1.15v.94h-3.28zm15.04 7.22c-.13.28-.34.56-.63.84a4.4 4.4 0 01-1.03.75c-.4.2-.87.37-1.42.5a7.49 7.49 0 01-4.37-.22 5.24 5.24 0 01-3.09-3.26 8.17 8.17 0 01-.38-2.59c0-2.05.53-3.6 1.6-4.68 1.08-1.07 2.56-1.6 4.47-1.6.81 0 1.57.1 2.28.33a3.9 3.9 0 012.76 3.12c.19.83.18 1.85-.03 3.05h-7.36c.01 1.26.33 2.27.96 3.02.64.75 1.57 1.13 2.8 1.13.53 0 1.08-.08 1.64-.24a3.76 3.76 0 001.34-.63l.46.48zm-4.95-8.9c-.32 0-.6.06-.86.17a1.6 1.6 0 00-.65.62c-.18.29-.32.69-.43 1.2-.11.5-.2 1.13-.24 1.9h3.86c.11-1.25.04-2.21-.21-2.88-.26-.67-.75-1.01-1.47-1.01zm17.45 7.44v.91l.07.82 1.66.24v.84c-.2.1-.45.19-.8.29a12.2 12.2 0 01-2.09.48l-.93.14h-.81a3.53 3.53 0 01-.29-1.1c-.03-.37-.06-.82-.07-1.35h-.12a3.2 3.2 0 01-2.19 2.28 4.32 4.32 0 01-2.8-.02 3.7 3.7 0 01-1.18-.67c-.33-.3-.6-.64-.8-1.04-.18-.41-.28-.88-.28-1.39 0-.72.14-1.31.4-1.77.28-.47.7-.84 1.28-1.13.6-.3 1.35-.53 2.26-.67.92-.15 2.04-.25 3.36-.32a7.34 7.34 0 00-.17-3.02c-.24-.64-.76-.96-1.56-.96-.5 0-.95.08-1.37.24l-1.13 2.88h-1.05c-.13-.2-.26-.4-.39-.65l-.33-.79-.27-.86a8.12 8.12 0 01-.14-.84c.6-.42 1.4-.75 2.35-.99.96-.24 1.98-.36 3.05-.36.91 0 1.66.1 2.23.31.58.2 1.03.47 1.34.82.34.34.57.74.7 1.2.13.46.2.96.2 1.49 0 .96-.03 1.83-.08 2.61a57.1 57.1 0 00-.05 2.38zm-5.4 1.85c.34 0 .63-.07.87-.2a2.2 2.2 0 00.98-1.03c.1-.2.17-.39.22-.55v-2.4c-.75.02-1.37.07-1.85.15-.48.08-.86.21-1.13.4-.27.18-.46.41-.57.7-.1.27-.15.6-.15 1 0 .62.15 1.09.43 1.42.3.34.7.5 1.2.5zm7.67-9.8c.61-.38 1.25-.65 1.92-.81V9.82a9.77 9.77 0 012.64-.86h.82V12h3.17v1.51h-3.17v6.22c0 .99.12 1.68.36 2.06.26.39.67.58 1.25.58.29 0 .6-.02.96-.05.37-.05.7-.13 1-.24l.17.8c-.14.14-.36.29-.64.45a7.28 7.28 0 01-3.46.96c-1.04 0-1.82-.27-2.33-.82-.51-.54-.77-1.42-.77-2.64v-7.32h-1.92v-.93zM158.88 24h-6.63v-.94a8.7 8.7 0 011.58-.58V13.7l-1.58-.19v-.93a8.35 8.35 0 012.04-.53c.4-.08.8-.15 1.18-.2a19 19 0 011-.14h.82V22.5a7.99 7.99 0 011.59.57V24zm-5.45-15.94c0-.56.19-1 .57-1.32.39-.32.88-.48 1.5-.48.6 0 1.1.16 1.48.48.38.32.58.76.58 1.32 0 .55-.2.98-.58 1.3-.38.32-.88.48-1.49.48-.6 0-1.1-.16-1.49-.48a1.6 1.6 0 01-.57-1.3zm6.8 9.94c0-.98.14-1.85.42-2.62.3-.78.73-1.44 1.28-1.99a5.65 5.65 0 012.01-1.25 7.69 7.69 0 012.66-.43c1.13 0 2.09.16 2.89.48a5.01 5.01 0 013.14 3.29c.24.77.36 1.6.36 2.52 0 .98-.15 1.86-.43 2.64a5.3 5.3 0 01-3.3 3.22c-.77.28-1.66.43-2.66.43a7.96 7.96 0 01-2.83-.46 5.66 5.66 0 01-1.99-1.3 5.3 5.3 0 01-1.18-1.99 8.15 8.15 0 01-.38-2.54zm3.71 0c0 .72.04 1.38.12 2 .1.58.26 1.09.48 1.5.22.42.53.75.91.99.39.22.88.33 1.5.33.34 0 .66-.08.95-.24.29-.17.54-.44.75-.81.2-.39.35-.88.45-1.49.11-.62.17-1.38.17-2.28 0-.74-.05-1.4-.15-2-.08-.58-.23-1.09-.45-1.5a2.3 2.3 0 00-.86-.96 2.5 2.5 0 00-1.4-.36c-.41 0-.77.08-1.08.26-.3.16-.56.43-.77.82-.2.36-.36.86-.47 1.48-.1.61-.15 1.36-.15 2.26zm24.96 6h-6.37v-.94l.6-.28c.21-.1.45-.2.72-.3v-5.63c0-1.01-.14-1.8-.43-2.35-.28-.58-.8-.87-1.53-.87-.61 0-1.14.2-1.59.6-.43.39-.76.91-.98 1.59v6.67c.25.06.48.14.67.24.2.08.42.19.65.33V24h-6.36v-.94a8 8 0 011.58-.57V13.7l-1.58-.19v-.93a15.29 15.29 0 013.1-.72c.41-.07.79-.12 1.12-.15h.82v2.47h.02a4.7 4.7 0 011.51-1.72 4 4 0 012.45-.75c.63 0 1.19.08 1.68.24.5.15.92.41 1.25.8.35.38.62.9.8 1.55.19.64.28 1.46.28 2.45v5.74c.64.11 1.17.3 1.59.57V24z" fill="#000"/><circle opacity=".7" cx="14" cy="14" r="14" fill="#0056EC"/><circle opacity=".7" cx="22" cy="21" r="14" fill="#C8DBFB"/></svg>